<svg width="80" height="80" viewBox="0 0 80 80" fill="none" xmlns="http://www.w3.org/2000/svg">
<path d="M0 77.3435C0.71875 77.3591 1.45312 77.406 2.17188 77.406C5.26562 77.406 8.35938 77.406 11.5312 77.406C11.5312 70.531 11.5312 63.7029 11.5312 56.781C10.7344 56.781 9.9375 56.781 9.09375 56.781C9.09375 54.1872 9.09375 51.6716 9.09375 49.0622C10.75 49.0622 12.4375 49.0622 14.2031 49.0622C14.2031 47.5935 14.2656 46.2185 14.1875 44.8591C14.0312 41.9216 15.7344 39.7341 18.5625 39.0622C19.9062 38.7497 21.2188 38.3122 22.5469 37.9529C23.0469 37.8279 23.2344 37.6247 23.2656 37.0622C23.3125 36.0622 23.125 35.2497 22.375 34.4685C21.4219 33.4841 20.8906 32.2029 20.7656 30.8122C20.5781 28.7185 20.4375 26.6091 21.1094 24.5466C22.7031 19.6247 29.1562 17.7341 33.1562 21.0154C35.125 22.6404 36.1406 24.7029 36.125 27.2654C36.1094 28.531 36.125 29.8122 35.9688 31.0779C35.7969 32.5935 35.0312 33.8747 34 34.9841C33.6562 35.3435 33.3594 37.2497 33.625 37.6247C33.75 37.781 34.0156 37.8591 34.2188 37.9216C35.5625 38.3122 36.9062 38.7185 38.2656 39.0622C40.7188 39.7029 42.1719 41.2185 42.5625 43.8122C42.7656 43.8279 43 43.8591 43.2188 43.8591C45.2188 43.8591 47.2344 43.8747 49.2344 43.8591C49.4844 43.8591 49.7969 43.8279 49.9531 43.6716C52.2031 41.4685 54.4219 39.2497 56.6094 37.0779C55.6406 36.3747 54.6406 35.7966 53.8438 35.0154C52.4844 33.7185 51.7656 32.0466 51.6719 30.1404C51.5469 27.7185 51.4688 25.3279 52.75 23.0935C55.2812 18.6872 61.9219 18.0779 65.1719 21.9841C66.4375 23.4997 67.1094 25.2185 67.0938 27.2029C67.0781 28.4216 67.1406 29.656 66.9844 30.8747C66.7812 32.6091 65.9219 34.0622 64.5938 35.3435C66.9375 36.656 67.2656 38.8122 67.0625 41.2341C68.8125 41.2341 70.4688 41.2341 72.1875 41.2341C72.2031 41.5935 72.25 41.8591 72.25 42.1404C72.25 47.2966 72.2656 52.4529 72.25 57.6091C72.2344 61.781 70.3594 64.7497 66.5 66.4216C65.9531 66.656 65.3594 66.781 64.6719 66.9997C64.7344 67.7185 64.7812 68.4841 64.8594 69.2498C65.1094 71.781 65.3906 74.3279 65.6094 76.8591C65.6562 77.4685 66.0312 77.406 66.4219 77.406C70.4375 77.406 74.4375 77.406 78.4531 77.406C78.9688 77.406 79.4844 77.3591 80 77.3435C80 78.2341 80 79.1091 80 79.9998C53.3281 79.9998 26.6719 79.9998 0 79.9998C0 79.1091 0 78.2341 0 77.3435ZM47.7031 56.8122C36.5312 56.8122 25.4062 56.8122 14.2656 56.8122C14.2656 57.6716 14.2656 58.4997 14.2656 59.3904C15.5469 59.3904 16.7812 59.3904 18.0312 59.3904C18.0312 60.2654 18.0312 61.0622 18.0312 61.9372C16.7344 61.9372 15.5 61.9372 14.25 61.9372C14.25 67.1247 14.25 72.2185 14.25 77.3904C15.1875 77.3904 16.0938 77.4216 17 77.3748C17.1875 77.3591 17.4062 77.0935 17.5156 76.8904C18.2188 75.531 18.9062 74.156 19.5781 72.781C19.7812 72.3591 20.0312 72.2341 20.4844 72.2341C27.4844 72.2497 34.4844 72.2497 41.5 72.2341C41.9531 72.2341 42.2031 72.3904 42.3906 72.7966C43.0312 74.156 43.7188 75.4997 44.4062 76.8435C44.5156 77.0623 44.7656 77.3591 44.9688 77.3748C45.875 77.4373 46.7812 77.406 47.7031 77.406C47.7031 72.2029 47.7031 67.0935 47.7031 61.8904C38.6719 61.8904 29.7031 61.8904 20.7031 61.8904C20.7031 61.0154 20.7031 60.2185 20.7031 59.3591C29.7188 59.3591 38.6875 59.3591 47.7188 59.3591C47.7031 58.4841 47.7031 57.6716 47.7031 56.8122ZM16.7969 48.9997C22.9062 48.9997 28.9375 48.9997 35.0312 48.9997C34.6094 47.4841 34.8906 46.1716 35.9375 45.0466C36.9844 43.906 38.3906 43.8122 39.8125 43.8747C39.75 42.7654 39.1562 42.0622 37.9531 41.6872C36.4062 41.2185 34.875 40.7654 33.3125 40.3591C33.0625 40.2966 32.6875 40.4529 32.4531 40.6091C31.7344 41.0935 31.1094 41.781 30.3281 42.1404C28.2969 43.0779 26.0938 42.4685 24.375 40.7029C24.1719 40.4841 23.7344 40.281 23.4844 40.3591C21.9062 40.7654 20.3281 41.2341 18.7656 41.7029C17.6094 42.0466 16.8594 42.8279 16.8125 44.0466C16.75 45.6872 16.7969 47.3122 16.7969 48.9997ZM50.3438 59.3591C53.7031 59.3591 56.9844 59.3591 60.25 59.3591C62.9062 59.3591 64.5156 57.7341 64.5156 55.0622C64.5156 50.1404 64.5156 45.2185 64.5156 40.3122C64.5156 40.1404 64.4844 39.9529 64.4844 39.9997C64 40.656 63.5312 41.4685 62.8906 42.1404C61.0312 44.0779 59.1094 45.9372 57.2188 47.8435C56.2031 48.8591 54.8438 49.7185 54.3281 50.9529C53.8281 52.156 54.2031 53.7185 54.1875 55.1247C54.1875 55.656 54.1875 56.2029 54.1875 56.8122C52.8437 56.8122 51.5938 56.8122 50.3281 56.8122C50.3438 57.656 50.3438 58.4529 50.3438 59.3591ZM54.2344 28.4685C54.2344 28.9216 54.1875 29.5466 54.2344 30.1716C54.4219 32.6091 56.3906 34.531 58.9375 34.8122C61.2188 35.0622 63.6875 33.5466 64.1719 31.281C64.5156 29.7185 64.5156 28.031 64.3906 26.4216C64.2188 24.2341 62.5938 22.5779 60.5 22.0779C58.5156 21.6091 56.3906 22.4216 55.1406 24.1404C54.2344 25.3904 54.125 26.8122 54.2344 28.4685ZM23.2656 28.4997C23.2656 28.9216 23.2344 29.4685 23.2656 30.0154C23.4062 32.531 25.2969 34.4841 27.8906 34.7966C30.2344 35.0779 32.7188 33.5466 33.2344 31.1872C33.5625 29.6404 33.5625 27.9841 33.4219 26.406C33.2344 24.2341 31.9062 22.7966 29.8125 22.1872C27.75 21.5779 25.9688 22.1404 24.5156 23.7185C23.2969 25.0466 23.1406 26.6872 23.2656 28.4997ZM51.5625 51.656C38.2031 51.656 24.9375 51.656 11.6562 51.656C11.6562 52.531 11.6562 53.3435 11.6562 54.156C24.9844 54.156 38.25 54.156 51.5625 54.156C51.5625 53.3122 51.5625 52.4997 51.5625 51.656ZM67.0781 43.9216C67.0781 44.3122 67.0781 44.6247 67.0781 44.9216C67.0625 48.6247 67.125 52.3122 67.0156 56.0154C66.9219 59.1091 64.2812 61.7497 61.1719 61.8591C57.875 61.9685 54.5625 61.906 51.25 61.9216C50.9531 61.9216 50.6562 61.9216 50.3594 61.9216C50.3594 62.8591 50.3594 63.656 50.3594 64.4841C50.5156 64.4997 50.6406 64.5154 50.7656 64.5154C54.875 64.5154 58.9844 64.531 63.1094 64.4997C63.6719 64.4997 64.2656 64.4216 64.7969 64.2654C67.8438 63.4372 69.6562 60.9997 69.6719 57.7341C69.6875 53.3279 69.6719 48.9372 69.6719 44.531C69.6719 44.3279 69.6406 44.1247 69.625 43.8904C68.7969 43.9216 68 43.9216 67.0781 43.9216ZM45.4219 49.0466C47.5 49.0466 49.5781 49.0779 51.6719 49.031C52.0625 49.0154 52.5312 48.8279 52.8125 48.5622C55.6094 45.8122 58.3906 43.0154 61.1562 40.2341C61.3438 40.0466 61.5156 39.8591 61.6719 39.6404C62.0469 39.0779 61.9531 38.2966 61.5 37.8435C61.0312 37.3904 60.2812 37.2966 59.7031 37.6872C59.4531 37.8591 59.2188 38.0779 59 38.2966C56.4688 40.8122 53.9375 43.3279 51.4375 45.8591C51.0156 46.281 50.5938 46.4372 50 46.4372C46.4688 46.4216 42.9219 46.4216 39.3906 46.4216C39.0781 46.4216 38.7656 46.4372 38.4688 46.4997C37.8281 46.6247 37.4688 47.0466 37.4531 47.7029C37.4375 48.3904 37.8125 48.8279 38.4844 48.9685C38.7344 49.0154 39 49.031 39.2656 49.031C41.3125 49.0466 43.375 49.0466 45.4219 49.0466ZM57.9219 77.3591C57.5781 73.906 57.2344 70.5154 56.9062 67.156C54.6406 67.156 52.5 67.156 50.375 67.156C50.375 70.5935 50.375 73.9685 50.375 77.3591C52.8906 77.3591 55.3594 77.3591 57.9219 77.3591ZM20.2031 77.3435C27.4375 77.3435 34.5469 77.3435 41.7344 77.3435C41.3594 76.5779 41.0469 75.8904 40.6719 75.2498C40.5625 75.0623 40.25 74.8591 40.0312 74.8591C33.9844 74.8435 27.9531 74.8435 21.9062 74.8591C21.7031 74.8591 21.3906 74.9998 21.2969 75.1716C20.9062 75.8435 20.5938 76.5466 20.2031 77.3435ZM59.5938 67.1404C59.5625 67.2185 59.5469 67.2341 59.5469 67.2654C59.8594 70.531 60.1562 73.781 60.4844 77.0466C60.5 77.1873 60.7344 77.3904 60.875 77.406C61.5938 77.4373 62.3125 77.4216 63.0781 77.4216C62.7344 73.9216 62.3906 70.531 62.0469 67.156C61.1719 67.1404 60.375 67.1404 59.5938 67.1404ZM30.8594 36.9997C29.2031 37.5466 27.5313 37.4841 25.875 37.0154C25.5312 38.3435 26.2031 39.0622 27.1562 39.6404C28.125 40.2185 29.0312 40.0622 29.9219 39.4529C30.7969 38.8591 31.1875 38.1091 30.8594 36.9997Z" fill="#3C4852"/>
<path d="M61.875 0C61.8906 3.15625 61.9062 6.29688 61.9219 9.45312C61.9219 10.5625 61.9219 11.6875 61.9219 12.9219C61.5469 12.9219 61.25 12.9219 60.9531 12.9219C57.4375 12.9219 53.9219 12.9375 50.4063 12.9062C49.7344 12.9062 49.2344 13.1094 48.7344 13.5312C45.8906 15.9375 43.0312 18.3125 40.0469 20.7969C40.0469 18.125 40.0469 15.5781 40.0469 12.9375C37 12.9375 34.0469 12.9375 30.9531 12.9375C30.9531 8.5625 30.9531 4.28125 30.9531 0C41.25 0 51.5625 0 61.875 0ZM59.3125 2.64062C50.7188 2.64062 42.1719 2.64062 33.5937 2.64062C33.5937 5.20312 33.5937 7.71875 33.5937 10.3125C36.5937 10.3125 39.5313 10.3125 42.5938 10.3125C42.5938 11.9531 42.5938 13.5312 42.5938 15.2344C42.9219 14.9844 43.1406 14.8281 43.3281 14.6719C44.8906 13.375 46.4375 12.0625 48.0156 10.7969C48.3437 10.5312 48.8281 10.3438 49.25 10.3438C52.3281 10.3125 55.3906 10.3281 58.4688 10.3281C58.75 10.3281 59.0156 10.3281 59.3125 10.3281C59.3125 7.70312 59.3125 5.1875 59.3125 2.64062Z" fill="#3C4852"/>
<path d="M41.3125 7.70312C41.3125 6.85937 41.3125 6.0625 41.3125 5.21875C44.7188 5.21875 48.0937 5.21875 51.5312 5.21875C51.5312 6.03125 51.5312 6.84375 51.5312 7.70312C48.1406 7.70312 44.75 7.70312 41.3125 7.70312Z" fill="#3C4852"/>
<path d="M36.1562 7.6875C36.1562 6.84375 36.1562 6.04687 36.1562 5.20312C37.0156 5.20312 37.8281 5.20312 38.6875 5.20312C38.6875 6.03125 38.6875 6.82813 38.6875 7.6875C37.8594 7.6875 37.0469 7.6875 36.1562 7.6875Z" fill="#3C4852"/>
<path d="M54.2344 7.70312C54.2344 6.82812 54.2344 6.03125 54.2344 5.20312C55.0625 5.20312 55.8594 5.20312 56.7031 5.20312C56.7031 6.03125 56.7031 6.84375 56.7031 7.70312C55.8906 7.70312 55.0938 7.70312 54.2344 7.70312Z" fill="#3C4852"/>
</svg>
