<svg width="80" height="80" viewBox="0 0 80 80" fill="none" xmlns="http://www.w3.org/2000/svg">
<path d="M74.4375 63.8195C75.2303 63.1635 75.8014 62.2789 76.0729 61.2863C76.3444 60.2937 76.303 59.2415 75.9543 58.2734C75.6057 57.3052 74.9669 56.4681 74.1249 55.8765C73.283 55.2848 72.2791 54.9673 71.25 54.9673C70.221 54.9673 69.217 55.2848 68.3751 55.8765C67.5332 56.4681 66.8943 57.3052 66.5457 58.2734C66.1971 59.2415 66.1557 60.2937 66.4271 61.2863C66.6986 62.2789 67.2697 63.1635 68.0625 63.8195C66.8751 63.9842 65.7873 64.5729 65 65.477C64.2128 64.5729 63.125 63.9842 61.9375 63.8195C62.7303 63.1635 63.3014 62.2789 63.5729 61.2863C63.8444 60.2937 63.803 59.2415 63.4543 58.2734C63.1057 57.3052 62.4669 56.4681 61.625 55.8765C60.783 55.2848 59.7791 54.9673 58.75 54.9673C57.721 54.9673 56.717 55.2848 55.8751 55.8765C55.0332 56.4681 54.3943 57.3052 54.0457 58.2734C53.6971 59.2415 53.6557 60.2937 53.9271 61.2863C54.1986 62.2789 54.7697 63.1635 55.5625 63.8195C54.3751 63.9842 53.2873 64.5729 52.5 65.477C51.7128 64.5729 50.625 63.9842 49.4375 63.8195C50.2303 63.1635 50.8014 62.2789 51.0729 61.2863C51.3444 60.2937 51.303 59.2415 50.9543 58.2734C50.6057 57.3052 49.9669 56.4681 49.125 55.8765C48.283 55.2848 47.2791 54.9673 46.25 54.9673C45.221 54.9673 44.217 55.2848 43.3751 55.8765C42.5332 56.4681 41.8943 57.3052 41.5457 58.2734C41.1971 59.2415 41.1557 60.2937 41.4271 61.2863C41.6986 62.2789 42.2697 63.1635 43.0625 63.8195C41.8701 63.9832 40.7769 64.5723 39.9845 65.4782C39.192 66.3841 38.7536 67.5459 38.75 68.7495V77.4995C38.75 77.8311 38.8817 78.149 39.1161 78.3834C39.3506 78.6178 39.6685 78.7495 40 78.7495H77.5C77.8315 78.7495 78.1495 78.6178 78.3839 78.3834C78.6183 78.149 78.75 77.8311 78.75 77.4995V68.7495C78.7464 67.5459 78.308 66.3841 77.5156 65.4782C76.7231 64.5723 75.63 63.9832 74.4375 63.8195ZM46.25 57.4995C46.7445 57.4995 47.2278 57.6462 47.639 57.9209C48.0501 58.1956 48.3705 58.586 48.5597 59.0428C48.7489 59.4996 48.7985 60.0023 48.702 60.4873C48.6055 60.9722 48.3674 61.4177 48.0178 61.7673C47.6682 62.1169 47.2227 62.355 46.7378 62.4515C46.2528 62.548 45.7501 62.4985 45.2933 62.3092C44.8365 62.12 44.446 61.7996 44.1713 61.3885C43.8966 60.9773 43.75 60.494 43.75 59.9995C43.75 59.3365 44.0134 58.7006 44.4823 58.2318C44.9511 57.7629 45.587 57.4995 46.25 57.4995ZM51.25 76.2495H41.25V68.7495C41.25 68.0865 41.5134 67.4506 41.9823 66.9818C42.4511 66.5129 43.087 66.2495 43.75 66.2495H48.75C49.4131 66.2495 50.049 66.5129 50.5178 66.9818C50.9866 67.4506 51.25 68.0865 51.25 68.7495V76.2495ZM58.75 57.4995C59.2445 57.4995 59.7278 57.6462 60.1389 57.9209C60.5501 58.1956 60.8705 58.586 61.0597 59.0428C61.2489 59.4996 61.2984 60.0023 61.202 60.4873C61.1055 60.9722 60.8674 61.4177 60.5178 61.7673C60.1682 62.1169 59.7227 62.355 59.2378 62.4515C58.7528 62.548 58.2501 62.4985 57.7933 62.3092C57.3365 62.12 56.946 61.7996 56.6713 61.3885C56.3966 60.9773 56.25 60.494 56.25 59.9995C56.25 59.3365 56.5134 58.7006 56.9823 58.2318C57.4511 57.7629 58.087 57.4995 58.75 57.4995ZM63.75 76.2495H53.75V68.7495C53.75 68.0865 54.0134 67.4506 54.4823 66.9818C54.9511 66.5129 55.587 66.2495 56.25 66.2495H61.25C61.9131 66.2495 62.549 66.5129 63.0178 66.9818C63.4866 67.4506 63.75 68.0865 63.75 68.7495V76.2495ZM71.25 57.4995C71.7445 57.4995 72.2278 57.6462 72.6389 57.9209C73.0501 58.1956 73.3705 58.586 73.5597 59.0428C73.7489 59.4996 73.7984 60.0023 73.702 60.4873C73.6055 60.9722 73.3674 61.4177 73.0178 61.7673C72.6682 62.1169 72.2227 62.355 71.7377 62.4515C71.2528 62.548 70.7501 62.4985 70.2933 62.3092C69.8365 62.12 69.446 61.7996 69.1713 61.3885C68.8966 60.9773 68.75 60.494 68.75 59.9995C68.75 59.3365 69.0134 58.7006 69.4823 58.2318C69.9511 57.7629 70.587 57.4995 71.25 57.4995ZM76.25 76.2495H66.25V68.7495C66.25 68.0865 66.5134 67.4506 66.9823 66.9818C67.4511 66.5129 68.087 66.2495 68.75 66.2495H73.75C74.4131 66.2495 75.049 66.5129 75.5178 66.9818C75.9866 67.4506 76.25 68.0865 76.25 68.7495V76.2495ZM55.5413 36.3745C55.3291 36.2724 55.0924 36.2323 54.8584 36.2589C54.6244 36.2854 54.4027 36.3775 54.2188 36.5245L47.9688 41.5245C47.8223 41.6416 47.7041 41.7902 47.6229 41.9592C47.5416 42.1282 47.4994 42.3133 47.4994 42.5008C47.4994 42.6883 47.5416 42.8734 47.6229 43.0424C47.7041 43.2114 47.8223 43.3599 47.9688 43.477L54.2188 48.477C54.4027 48.6243 54.6246 48.7166 54.8587 48.7432C55.0928 48.7699 55.3297 48.7298 55.5421 48.6276C55.7544 48.5254 55.9335 48.3653 56.0588 48.1657C56.1841 47.9661 56.2503 47.7352 56.25 47.4995V46.2495H68.75C69.0815 46.2495 69.3995 46.1178 69.6339 45.8834C69.8683 45.649 70 45.3311 70 44.9995V39.9995C70 39.668 69.8683 39.3501 69.6339 39.1156C69.3995 38.8812 69.0815 38.7495 68.75 38.7495H56.25V37.4995C56.2497 37.2643 56.183 37.034 56.0576 36.835C55.9323 36.636 55.7533 36.4764 55.5413 36.3745ZM67.5 41.2495V43.7495H55C54.6847 43.7486 54.3807 43.8668 54.1489 44.0805C53.9171 44.2943 53.7746 44.5877 53.75 44.902L50.75 42.4995L53.75 40.097C53.7746 40.4114 53.9171 40.7048 54.1489 40.9185C54.3807 41.1323 54.6847 41.2505 55 41.2495H67.5ZM8.75003 64.9995V77.4995C8.75003 77.8311 8.88172 78.149 9.11614 78.3834C9.35056 78.6178 9.66851 78.7495 10 78.7495H27.5C27.8315 78.7495 28.1495 78.6178 28.3839 78.3834C28.6183 78.149 28.75 77.8311 28.75 77.4995V64.9995C28.748 63.3425 28.0889 61.754 26.9173 60.5823C25.7456 59.4106 24.157 58.7515 22.5 58.7495H22.2425C23.1581 58.0244 23.8252 57.0322 24.1513 55.9108C24.4774 54.7893 24.4464 53.5941 24.0624 52.4911C23.6785 51.3881 22.9608 50.4319 22.0089 49.7553C21.0569 49.0786 19.9179 48.7151 18.75 48.7151C17.5821 48.7151 16.4431 49.0786 15.4912 49.7553C14.5392 50.4319 13.8215 51.3881 13.4376 52.4911C13.0537 53.5941 13.0226 54.7893 13.3488 55.9108C13.6749 57.0322 14.342 58.0244 15.2575 58.7495H15C13.343 58.7515 11.7545 59.4106 10.5828 60.5823C9.41113 61.754 8.75201 63.3425 8.75003 64.9995ZM18.75 51.2495C19.3681 51.2495 19.9723 51.4328 20.4862 51.7762C21.0001 52.1196 21.4006 52.6076 21.6371 53.1786C21.8737 53.7497 21.9356 54.378 21.815 54.9842C21.6944 55.5904 21.3968 56.1472 20.9597 56.5842C20.5227 57.0213 19.9659 57.3189 19.3597 57.4395C18.7535 57.5601 18.1252 57.4982 17.5541 57.2617C16.9831 57.0251 16.4951 56.6246 16.1517 56.1107C15.8083 55.5968 15.625 54.9926 15.625 54.3745C15.625 53.5457 15.9543 52.7509 16.5403 52.1648C17.1264 51.5788 17.9212 51.2495 18.75 51.2495ZM22.5 61.2495C23.4946 61.2495 24.4484 61.6446 25.1517 62.3479C25.8549 63.0511 26.25 64.005 26.25 64.9995V76.2495H11.25V64.9995C11.25 64.005 11.6451 63.0511 12.3484 62.3479C13.0516 61.6446 14.0055 61.2495 15 61.2495H22.5ZM30 14.3745H16.25V11.8745C16.2499 11.637 16.1822 11.4044 16.0547 11.204C15.9272 11.0036 15.7452 10.8437 15.5301 10.743C15.315 10.6422 15.0757 10.6049 14.8401 10.6353C14.6046 10.6657 14.3825 10.7625 14.2 10.9145L6.70003 17.1645C6.56665 17.2757 6.4579 17.4135 6.38072 17.569C6.30353 17.7246 6.25959 17.8945 6.25171 18.0679C6.24384 18.2414 6.27218 18.4146 6.33495 18.5765C6.39772 18.7384 6.49353 18.8855 6.61628 19.0083L14.1163 26.5083C14.2911 26.683 14.5138 26.8021 14.7562 26.8503C14.9987 26.8985 15.25 26.8737 15.4783 26.7791C15.7067 26.6845 15.9019 26.5244 16.0393 26.3189C16.1766 26.1133 16.25 25.8717 16.25 25.6245V23.1245H30C30.3315 23.1245 30.6495 22.9928 30.8839 22.7584C31.1183 22.524 31.25 22.2061 31.25 21.8745V15.6245C31.25 15.293 31.1183 14.9751 30.8839 14.7406C30.6495 14.5062 30.3315 14.3745 30 14.3745ZM28.75 20.6245H15C14.6685 20.6245 14.3506 20.7562 14.1161 20.9906C13.8817 21.2251 13.75 21.543 13.75 21.8745V22.607L9.35128 18.2083L13.75 14.5433V15.6245C13.75 15.9561 13.8817 16.274 14.1161 16.5084C14.3506 16.7428 14.6685 16.8745 15 16.8745H28.75V20.6245Z" fill="#3C4852"/>
<path d="M32.5 1.25H5C4.00544 1.25 3.05161 1.64509 2.34835 2.34835C1.64509 3.05161 1.25 4.00544 1.25 5V31.25C1.25 32.2446 1.64509 33.1984 2.34835 33.9016C3.05161 34.6049 4.00544 35 5 35H14.2275L17.6312 41.8087C17.7349 42.0168 17.8945 42.1917 18.0922 42.3141C18.2898 42.4364 18.5176 42.5012 18.75 42.5012C18.9824 42.5012 19.2102 42.4364 19.4078 42.3141C19.6055 42.1917 19.7651 42.0168 19.8688 41.8087L23.2725 35H32.5C33.4946 35 34.4484 34.6049 35.1516 33.9016C35.8549 33.1984 36.25 32.2446 36.25 31.25V5C36.25 4.00544 35.8549 3.05161 35.1516 2.34835C34.4484 1.64509 33.4946 1.25 32.5 1.25ZM33.75 31.25C33.75 31.5815 33.6183 31.8995 33.3839 32.1339C33.1495 32.3683 32.8315 32.5 32.5 32.5H22.5C22.2677 32.4999 22.04 32.5645 21.8424 32.6866C21.6448 32.8087 21.4851 32.9835 21.3812 33.1912L18.75 38.455L16.125 33.1912C16.0207 32.9825 15.86 32.8071 15.6612 32.685C15.4624 32.5628 15.2333 32.4987 15 32.5H5C4.66848 32.5 4.35054 32.3683 4.11612 32.1339C3.8817 31.8995 3.75 31.5815 3.75 31.25V5C3.75 4.66848 3.8817 4.35054 4.11612 4.11612C4.35054 3.8817 4.66848 3.75 5 3.75H32.5C32.8315 3.75 33.1495 3.8817 33.3839 4.11612C33.6183 4.35054 33.75 4.66848 33.75 5V31.25Z" fill="#3C4852"/>
</svg>
