<svg width="60" height="80" viewBox="0 0 60 80" fill="none" xmlns="http://www.w3.org/2000/svg">
<path d="M-0.000161082 45C0.216334 43.9375 0.355509 42.8594 0.633859 41.7969C2.50499 34.625 8.75242 29.2656 16.005 28.5937C16.6235 28.5312 16.6854 28.2812 16.6854 27.75C16.6699 22.875 16.6699 18.0156 16.6699 13.1406C16.6699 12.875 16.5772 12.5469 16.7009 12.375C16.9638 12.0156 17.3194 11.5156 17.6751 11.4687C18.0308 11.4219 18.5256 11.7969 18.8194 12.125C19.005 12.3281 18.9586 12.7656 18.9586 13.0937C18.9741 17.9062 18.9586 22.7344 18.9586 27.5469C18.9586 27.8281 18.9586 28.1094 18.9586 28.4375C19.8555 28.5937 20.737 28.6406 21.5565 28.9062C23.1803 29.4375 24.773 30.1094 26.3967 30.7031C26.8452 30.8594 27.3246 31.0469 27.773 31.0469C36.2009 31.0625 44.6287 31.0625 53.0565 31.0625C54.5256 31.0625 54.8349 31.375 54.8349 32.8281C54.8349 34.2031 54.8349 35.5937 54.8349 36.9687C54.8349 38.1719 54.4483 38.5625 53.2576 38.5625C47.1029 38.5625 40.9328 38.5625 34.7782 38.5625C34.4998 38.5625 34.2215 38.5625 33.8658 38.5625C34.1906 39.4375 34.4534 40.2656 34.8091 41.0625C34.8864 41.25 35.304 41.375 35.5514 41.375C39.6493 41.3906 43.7473 41.3906 47.8452 41.3906C49.4071 41.3906 49.7009 41.6719 49.7009 43.25C49.7009 44.6094 49.7009 45.9531 49.7009 47.3125C49.7009 48.5312 49.3297 48.9062 48.139 48.9062C44.2266 48.9062 40.2988 48.9062 36.3864 48.9062C36.1081 48.9062 35.8297 48.9062 35.4586 48.9062C34.8246 52.9844 33.0926 56.4844 30.1081 59.4375C39.3246 59.4375 48.4174 59.4375 57.572 59.4375C57.572 44.7656 57.572 30.0781 57.572 15.2656C57.3091 15.2656 57.0308 15.2656 56.7679 15.2656C53.3658 15.2656 49.9638 15.2656 46.5617 15.2656C45.1545 15.2656 44.8143 14.9375 44.8143 13.5312C44.8143 9.82812 44.8143 6.14062 44.8143 2.375C36.2318 2.375 27.6648 2.375 18.9741 2.375C18.9741 2.60937 18.9741 2.89062 18.9741 3.15625C18.9741 4.64062 18.9895 6.125 18.9741 7.60937C18.9586 8.5 18.4792 9.04687 17.7679 9.01562C17.0875 8.98437 16.6699 8.46875 16.6545 7.60937C16.6545 5.57812 16.6699 3.54687 16.639 1.51562C16.6235 0.8125 16.84 0.3125 17.4431 -0.03125C27.0772 -0.03125 36.7266 -0.03125 46.3607 -0.03125C46.6699 0.25 46.9792 0.5 47.273 0.796875C51.2163 4.78125 55.1596 8.76562 59.1029 12.75C59.4122 13.0625 59.6751 13.3906 59.9689 13.7187C59.9689 29.5 59.9689 45.2812 59.9689 61.0625C59.5668 61.7031 58.9947 61.8594 58.2679 61.8594C48.0926 61.8437 37.9174 61.8437 27.7421 61.8437C27.4638 61.8437 27.1545 61.8125 26.9071 61.9219C25.1442 62.6875 23.3967 63.4687 21.572 64.2812C21.572 65.1406 21.572 66.1719 21.572 67.2344C21.8504 67.25 22.0668 67.2656 22.2988 67.2656C23.8297 67.2812 24.0926 67.5469 24.0926 69.0781C24.0926 72.1562 24.0772 75.2187 24.1081 78.2969C24.1081 79.0156 23.938 79.5625 23.3349 79.9531C19.6699 79.9531 16.0205 79.9531 12.3555 79.9531C12.0926 79.5469 11.5978 79.1406 11.5823 78.7344C11.5205 75.3281 11.5359 71.9219 11.5514 68.5C11.5514 67.6719 11.9844 67.2969 12.8194 67.2656C13.2215 67.25 13.6236 67.2656 14.0411 67.2656C14.0411 66.1094 14.0411 65.0781 14.0411 64.0469C13.8555 63.9844 13.7163 63.9219 13.5772 63.8906C6.77303 62 2.42767 57.5938 0.541076 50.7344C0.293653 49.8125 0.169942 48.8594 -0.015625 47.9219C-0.000161082 46.9844 -0.000161082 45.9844 -0.000161082 45ZM17.8297 62.125C26.3504 62.1406 33.3091 55.1094 33.3246 46.4687C33.34 37.8437 26.3813 30.8125 17.8452 30.7969C9.35551 30.7969 2.38128 37.8125 2.35035 46.375C2.30396 55.0469 9.26272 62.125 17.8297 62.125ZM30.2009 33.4375C30.8658 34.2344 31.4998 34.9219 32.0411 35.6719C32.3504 36.0937 32.6596 36.2656 33.1854 36.2656C39.371 36.25 45.5565 36.25 51.7421 36.25C51.9895 36.25 52.2369 36.2187 52.4844 36.2031C52.4844 35.25 52.4844 34.3594 52.4844 33.4375C45.0617 33.4375 37.6854 33.4375 30.2009 33.4375ZM47.1957 12.9062C50.1184 12.9062 52.9483 12.9062 55.7009 12.9062C52.871 10.0469 50.0102 7.17187 47.1957 4.3125C47.1957 7.09375 47.1957 9.96875 47.1957 12.9062ZM47.3813 43.7969C43.3607 43.7969 39.4328 43.7969 35.4741 43.7969C35.5359 44.7344 35.5978 45.625 35.6596 46.5312C39.5875 46.5312 43.4534 46.5312 47.3658 46.5312C47.3813 45.6094 47.3813 44.7344 47.3813 43.7969ZM21.773 73.5937C19.1132 73.5937 16.5462 73.5937 13.9174 73.5937C13.9174 74.9531 13.9174 76.2656 13.9174 77.6094C16.5462 77.6094 19.1442 77.6094 21.773 77.6094C21.773 76.25 21.773 74.9687 21.773 73.5937ZM13.9328 71.1406C16.5617 71.1406 19.1596 71.1406 21.7576 71.1406C21.7576 70.6406 21.7576 70.1875 21.7576 69.7031C19.1287 69.7031 16.5462 69.7031 13.9328 69.7031C13.9328 70.2031 13.9328 70.6562 13.9328 71.1406ZM19.1751 67.2812C19.1751 66.3125 19.1751 65.4531 19.1751 64.5469C18.2473 64.5469 17.3658 64.5469 16.4689 64.5469C16.4689 65.4844 16.4689 66.375 16.4689 67.2812C17.3967 67.2812 18.2627 67.2812 19.1751 67.2812Z" fill="#3C4852"/>
<path d="M38.3041 20.7188C43.2526 20.7188 48.201 20.7188 53.134 20.7188C54.5412 20.7188 54.866 21.0469 54.866 22.4687C54.866 23.9062 54.8814 25.3281 54.866 26.7656C54.8505 27.8125 54.4485 28.25 53.4124 28.25C43.3454 28.25 33.2783 28.25 23.2113 28.25C22.2216 28.25 21.8196 27.8125 21.8041 26.8125C21.7887 25.3281 21.8041 23.8438 21.8041 22.3594C21.8041 21.0781 22.1443 20.7344 23.3969 20.7344C28.3608 20.7187 33.3402 20.7188 38.3041 20.7188ZM24.1546 25.8437C33.6495 25.8437 43.0515 25.8437 52.4845 25.8437C52.4845 24.9062 52.4845 24.0156 52.4845 23.1094C43.0051 23.1094 33.6031 23.1094 24.1546 23.1094C24.1546 24.0312 24.1546 24.9062 24.1546 25.8437Z" fill="#3C4852"/>
<path d="M21.8041 10.1719C21.8041 8.96875 21.8041 7.78125 21.8041 6.57812C21.8196 5.60938 22.2216 5.17188 23.1495 5.17188C25.5618 5.15625 27.9897 5.15625 30.4021 5.17188C31.3454 5.17188 31.7938 5.60938 31.7938 6.54688C31.8093 8.98438 31.8093 11.4375 31.7938 13.875C31.7938 14.8594 31.3454 15.2812 30.3557 15.2812C27.9897 15.2969 25.6237 15.2969 23.2577 15.2812C22.2062 15.2812 21.8041 14.875 21.8041 13.8281C21.7887 12.6094 21.8041 11.3906 21.8041 10.1719ZM24.1392 12.8906C25.9484 12.8906 27.6804 12.8906 29.4278 12.8906C29.4278 11.0781 29.4278 9.32813 29.4278 7.5625C27.634 7.5625 25.9021 7.5625 24.1392 7.5625C24.1392 9.35938 24.1392 11.0938 24.1392 12.8906Z" fill="#3C4852"/>
<path d="M17.8609 59.2814C10.8866 59.3126 5.14953 53.547 5.13406 46.5001C5.1186 39.4533 10.8248 33.672 17.799 33.6564C24.7732 33.6251 30.4794 39.3751 30.4949 46.4533C30.5104 53.5314 24.8815 59.2501 17.8609 59.2814ZM17.799 56.9376C23.5207 56.9689 28.1598 52.297 28.1908 46.5001C28.2217 40.7189 23.598 36.0158 17.8763 35.9845C12.1856 35.9533 7.48458 40.672 7.46912 46.422C7.42272 52.1876 12.0774 56.9064 17.799 56.9376Z" fill="#3C4852"/>
</svg>
