<svg width="29" height="30" viewBox="0 0 29 30" fill="none" xmlns="http://www.w3.org/2000/svg">
<path d="M26.8305 15.5791H26.3044V10.5872C26.3044 9.69979 25.6205 8.97874 24.7261 8.97874V3.82049C24.7261 3.32131 24.5157 2.82212 24.0948 2.48933C23.6213 2.10107 22.99 1.99014 22.4113 2.10107H22.3587L20.4122 2.87759L19.4653 1.32456C18.6761 -0.00659754 16.8348 -0.394853 15.467 0.437123L1.42044 8.92328C0.631305 9.03421 0 9.69979 0 10.5318V28.336C0 29.279 0.683914 30 1.57826 30H24.7261C25.6205 30 26.3044 29.279 26.3044 28.3915V23.3442H26.8305C27.7248 23.3442 28.4087 22.6231 28.4087 21.6802V17.243C28.4087 16.3001 27.7248 15.5791 26.8305 15.5791ZM22.727 3.21038C22.99 3.15491 23.2531 3.21038 23.4635 3.37677C23.5687 3.43224 23.674 3.59863 23.674 3.82049V8.36863L20.9909 3.87596L22.727 3.21038ZM16.0457 1.43549C16.8874 0.880843 18.15 1.15817 18.6235 1.93468L22.7796 8.92328H3.5774L16.0457 1.43549ZM25.2522 28.3915C25.2522 28.6688 25.0418 28.8907 24.7261 28.8907H1.57826C1.26261 28.8907 1.05218 28.6688 1.05218 28.3915V10.5318C1.05218 10.2544 1.26261 10.0326 1.57826 10.0326H24.7261C25.0418 10.0326 25.2522 10.2544 25.2522 10.5318V15.5236H18.4131C16.3613 15.5236 14.7305 17.243 14.7305 19.4062C14.7305 21.5693 16.3613 23.2887 18.4131 23.2887H25.2522V28.3915ZM27.3566 21.6802C27.3566 22.013 27.1461 22.2349 26.8305 22.2349H18.4131C16.94 22.2349 15.7826 21.0147 15.7826 19.4616C15.7826 17.9086 16.94 16.6884 18.4131 16.6884H25.6731C25.7257 16.6884 25.7257 16.6884 25.7783 16.6884C25.8309 16.6884 25.8309 16.6884 25.8835 16.6884H26.8305C27.1461 16.6884 27.3566 16.9102 27.3566 17.243V21.6802Z" fill="#3C4852"/>
<path d="M18.4132 17.7974C17.5189 17.7974 16.835 18.5184 16.835 19.4613C16.835 20.4042 17.5189 21.1253 18.4132 21.1253C19.3076 21.1253 19.9915 20.4042 19.9915 19.4613C19.9915 18.5184 19.3076 17.7974 18.4132 17.7974ZM18.4132 20.016C18.0976 20.016 17.8871 19.7941 17.8871 19.4613C17.8871 19.1285 18.0976 18.9067 18.4132 18.9067C18.7289 18.9067 18.9393 19.1285 18.9393 19.4613C18.9393 19.7941 18.7289 20.016 18.4132 20.016Z" fill="#3C4852"/>
</svg>
