<svg width="80" height="80" viewBox="0 0 80 80" fill="none" xmlns="http://www.w3.org/2000/svg">
<path d="M0 76.0938C0 56.2031 0 36.2969 0 16.4062C1.3125 13.2031 2.375 12.5 5.89062 12.5C8.17188 12.5 10.4688 12.5 12.75 12.5C13.7656 10.1562 15.5781 9.25 18.0156 9.375C18.6094 9.40625 19.2031 9.375 19.8125 9.375C19.8125 9.20312 19.8281 9.10938 19.8125 9C19.4062 6.04688 20.4062 3.65625 22.6562 1.73438C23.75 0.796875 25.0938 0.421875 26.4219 0C27.1562 0 27.875 0 28.6094 0C28.75 0.046875 28.8906 0.125 29.0312 0.15625C31.5625 0.75 33.4531 2.17188 34.5781 4.54688C35.2969 6.0625 35.5156 7.65625 35.1719 9.39062C36.0938 9.39062 36.9531 9.375 37.8125 9.39062C39.7188 9.45312 41.1562 10.3125 42.0156 12.0156C42.2188 12.4062 42.4219 12.5312 42.8438 12.5312C45.2656 12.5156 47.6875 12.5156 50.1094 12.5312C53.0313 12.5469 55.0312 14.5156 55.0312 17.4375C55.0469 36.6719 55.0312 55.9062 55.0312 75.1406C55.0312 76.8438 54.3906 78.25 52.9531 79.2031C52.4062 79.5625 51.7344 79.7656 51.125 80.0312C35.3906 80.0312 19.6719 80.0312 3.9375 80.0312C3.53125 79.875 3.10938 79.7344 2.71875 79.5625C1.20312 78.8438 0.453125 77.5781 0 76.0938ZM9.40625 70.5625C17.3594 70.5625 25.2344 70.5625 33.125 70.5625C33.125 67.0312 33.125 63.5781 33.125 60.1094C33.125 58.6875 33.6875 58.125 35.125 58.125C38.3281 58.125 41.5312 58.125 44.7344 58.125C45.0156 58.125 45.2969 58.125 45.5938 58.125C45.5938 46 45.5938 33.9688 45.5938 21.9219C33.5156 21.9219 21.4688 21.9219 9.42188 21.9219C9.40625 38.1562 9.40625 54.3438 9.40625 70.5625ZM42.5312 18.75C43.8906 18.75 45.1719 18.75 46.4375 18.75C48.2969 18.75 48.75 19.2031 48.75 21.0469C48.75 37.8438 48.75 54.6406 48.75 71.4375C48.75 73.2969 48.2969 73.75 46.4531 73.75C33.8281 73.75 21.2031 73.75 8.5625 73.75C6.6875 73.75 6.25 73.3125 6.25 71.4531C6.25 54.6562 6.25 37.8594 6.25 21.0625C6.25 20.8594 6.25 20.6406 6.25 20.4375C6.29688 19.3594 6.89062 18.7656 7.98438 18.75C9.26562 18.7188 10.5312 18.75 11.8125 18.7344C12.0312 18.7344 12.25 18.7031 12.4531 18.6875C12.4531 17.625 12.4531 16.6406 12.4531 15.6094C9.98437 15.6094 7.57812 15.6094 5.15625 15.6094C3.67188 15.6094 3.125 16.1562 3.125 17.6406C3.125 36.7031 3.125 55.7656 3.125 74.8125C3.125 76.2969 3.67188 76.8594 5.14062 76.8594C20.0312 76.8594 34.9219 76.8594 49.8281 76.8594C51.3125 76.8594 51.875 76.3125 51.875 74.8438C51.875 55.7812 51.875 36.7188 51.875 17.6719C51.875 16.1875 51.3281 15.625 49.8594 15.625C47.6406 15.625 45.4375 15.625 43.2188 15.625C43 15.625 42.7656 15.6562 42.5312 15.6719C42.5312 16.7031 42.5312 17.6875 42.5312 18.75ZM39.375 18.7188C39.375 17.2188 39.3906 15.7812 39.375 14.3594C39.3594 13.0938 38.7656 12.5156 37.4844 12.5C36.0781 12.4844 34.6719 12.5 33.2656 12.5C31.5781 12.5 31.0156 11.4688 31.625 9.90625C31.9531 9.0625 32.1875 8.07812 32.0938 7.20312C31.875 5.20312 30.6719 3.875 28.7344 3.32812C26.8906 2.8125 25.25 3.3125 24 4.75C22.6875 6.26562 22.4375 8 23.2969 9.84375C24.0781 11.5156 23.4375 12.5156 21.5781 12.5156C20.1719 12.5156 18.7656 12.5 17.3594 12.5156C16.3906 12.5312 15.7031 13.0156 15.6562 13.8906C15.5781 15.4844 15.6406 17.0938 15.6406 18.7344C23.5781 18.7188 31.4219 18.7188 39.375 18.7188ZM43.0938 61.3125C40.8906 61.3125 38.5781 61.3125 36.2969 61.3125C36.2969 63.6562 36.2969 65.9219 36.2969 68.125C38.5469 65.8438 40.8438 63.5625 43.0938 61.3125ZM45.5938 63.9375C43.4062 66.125 41.1094 68.4219 38.9375 70.5938C40.9844 70.5938 43.2656 70.5938 45.5938 70.5938C45.5938 68.2656 45.5938 65.9844 45.5938 63.9375Z" fill="#3C4852"/>
<path d="M67.0312 80.0001C66.1562 79.5157 65.8281 78.7501 65.9375 77.7813C66.0781 76.5157 65.7187 75.4845 64.9531 74.4063C62.4375 70.8438 61.2344 66.8438 61.25 62.4688C61.2656 48.3751 61.2656 34.297 61.25 20.2032C61.25 18.6251 61.5937 17.172 62.5625 15.8751C62.7344 15.6563 62.7969 15.3126 62.8125 15.0157C62.8437 14.0782 62.8125 13.1407 62.8281 12.2032C62.8437 9.31259 64.8125 7.20321 67.5 7.18759C70.2187 7.17196 72.1875 9.29696 72.2031 12.2345C72.2031 12.5782 72.2031 12.9063 72.2031 13.2501C72.1719 14.5157 72.2344 15.6876 73 16.8751C73.5469 17.7032 73.6094 18.8907 73.75 19.922C73.8594 20.8438 73.7812 21.7813 73.7812 22.8126C74.2187 22.8126 74.6094 22.8126 74.9844 22.8126C77.5469 22.8282 79.1406 24.0157 79.8906 26.4532C79.9219 26.547 79.9844 26.6407 80.0312 26.7188C80.0312 31.297 80.0312 35.8907 80.0312 40.4688C79.9531 40.5626 79.875 40.6563 79.7969 40.7657C79.375 41.3907 78.8125 41.6876 78.0625 41.4688C77.3125 41.2501 76.9687 40.7032 76.9219 39.9688C76.9062 39.7345 76.9219 39.5001 76.9219 39.2657C76.9219 35.4688 76.9219 31.6563 76.9219 27.8595C76.9219 26.7188 76.4375 26.0626 75.4844 25.9688C74.9531 25.9063 74.4062 25.9532 73.7969 25.9532C73.7969 26.3126 73.7969 26.6251 73.7969 26.922C73.7969 38.7657 73.7812 50.6095 73.7969 62.4688C73.7969 66.8438 72.625 70.8595 70.0937 74.4063C69.3281 75.4845 68.9687 76.5157 69.1094 77.7813C69.2187 78.7501 68.8906 79.5157 68.0156 80.0001C67.6562 80.0001 67.3437 80.0001 67.0312 80.0001ZM64.4219 25.9688C64.4219 37.7501 64.4219 49.4845 64.4219 61.1876C66.5156 61.1876 68.5469 61.1876 70.5781 61.1876C70.5781 49.422 70.5781 37.7188 70.5781 25.9688C68.5312 25.9688 66.5 25.9688 64.4219 25.9688ZM64.3906 22.7501C66.5156 22.7501 68.5469 22.7501 70.6094 22.7501C70.6094 21.6251 70.6562 20.5626 70.5937 19.5001C70.5156 17.8595 69.1562 16.5782 67.5312 16.5626C65.9062 16.547 64.5 17.7813 64.3906 19.4376C64.3281 20.5157 64.3906 21.6095 64.3906 22.7501ZM70.5 64.4063C68.4844 64.4063 66.5156 64.4063 64.4844 64.4063C64.7812 67.4063 65.75 70.1095 67.5 72.6407C69.2187 70.0938 70.2344 67.4063 70.5 64.4063ZM69.0469 13.5157C69.0469 12.9532 69.0937 12.3438 69.0312 11.7657C68.9531 10.9376 68.2969 10.3595 67.5312 10.3282C66.75 10.3126 66.0469 10.922 65.9531 11.7657C65.8906 12.3595 65.9375 12.9532 65.9375 13.5157C66.9844 13.5157 67.9531 13.5157 69.0469 13.5157Z" fill="#3C4852"/>
<path d="M27.4531 42.5C24.2031 42.5 20.9375 42.5 17.6875 42.5C17.3594 42.5 17 42.4844 16.6875 42.375C15.9844 42.1563 15.625 41.6094 15.6406 40.8906C15.6563 40.2031 16.0156 39.6875 16.6875 39.4844C17.0313 39.375 17.4063 39.3594 17.7656 39.3594C24.25 39.3594 30.7344 39.3594 37.2188 39.3594C37.3438 39.3594 37.4844 39.3594 37.6094 39.3594C38.6406 39.3906 39.3281 40 39.3594 40.875C39.3906 41.7813 38.6719 42.4688 37.6094 42.4688C34.2344 42.5156 30.8438 42.5 27.4531 42.5Z" fill="#3C4852"/>
<path d="M27.4844 48.7501C24.2812 48.7501 21.0781 48.7501 17.875 48.7501C17.6719 48.7501 17.4531 48.7657 17.25 48.7501C16.2969 48.6876 15.625 48.0313 15.6406 47.172C15.6562 46.3126 16.3281 45.6876 17.2969 45.6251C17.4531 45.6095 17.6094 45.6251 17.7656 45.6251C24.2812 45.6251 30.7812 45.6251 37.2969 45.6251C37.4844 45.6251 37.6562 45.6251 37.8437 45.6407C38.75 45.7345 39.3906 46.3907 39.375 47.2189C39.3594 48.047 38.7187 48.672 37.7969 48.7501C37.5937 48.7657 37.375 48.7501 37.1719 48.7501C33.9375 48.7501 30.7031 48.7501 27.4844 48.7501Z" fill="#3C4852"/>
<path d="M27.5781 51.875C30.8125 51.875 34.0312 51.875 37.2656 51.875C37.625 51.875 38 51.8906 38.3438 52C39 52.2188 39.3594 52.75 39.3594 53.4219C39.3594 54.1094 39.0156 54.6406 38.3438 54.8438C37.9844 54.9531 37.5781 54.9688 37.1875 54.9688C30.7344 54.9688 24.2656 54.9688 17.8125 54.9688C17.7656 54.9688 17.7031 54.9688 17.6563 54.9688C16.3906 54.9688 15.6406 54.375 15.6406 53.4062C15.6406 52.4375 16.3906 51.8438 17.6563 51.8438C20.9688 51.875 24.2656 51.875 27.5781 51.875Z" fill="#3C4852"/>
<path d="M30.5625 32.1875C28.4063 32.1875 26.2344 32.1875 24.0781 32.1875C23.8906 32.1875 23.7188 32.1875 23.5313 32.1875C22.5625 32.125 21.8906 31.5 21.8906 30.6406C21.8906 29.7813 22.5469 29.1094 23.5156 29.0781C24.4062 29.0469 25.2812 29.0625 26.1719 29.0625C29.8125 29.0625 33.4688 29.0625 37.1094 29.0625C37.3438 29.0625 37.5781 29.0469 37.8125 29.0781C38.7188 29.1563 39.375 29.7969 39.375 30.625C39.375 31.4531 38.7344 32.1094 37.8281 32.1875C37.625 32.2031 37.4063 32.2031 37.2031 32.2031C34.9844 32.1875 32.7656 32.1875 30.5625 32.1875Z" fill="#3C4852"/>
<path d="M17.2188 32.1721C16.4063 32.1877 15.6563 31.469 15.6406 30.6409C15.625 29.8284 16.3438 29.0784 17.1719 29.0628C17.9844 29.0471 18.7344 29.7659 18.75 30.594C18.75 31.4221 18.0313 32.1565 17.2188 32.1721Z" fill="#3C4852"/>
<path d="M27.4687 6.26588C28.2812 6.25025 29.0312 6.969 29.0469 7.79713C29.0625 8.60963 28.3438 9.35963 27.5156 9.37525C26.7031 9.39088 25.9531 8.67213 25.9375 7.844C25.9375 7.01588 26.6563 6.2815 27.4687 6.26588Z" fill="#3C4852"/>
</svg>
