<svg width="50" height="30" viewBox="0 0 50 30" fill="none" xmlns="http://www.w3.org/2000/svg">
<path d="M13.7715 4.33496L17.0067 6.00721H20.242" stroke="#3C4852"/>
<path d="M35.6098 5.17031L34.555 5.71555C34.193 5.9026 33.7763 5.94261 33.3872 5.82762L28.7662 4.46279C28.4771 4.37739 28.178 4.33401 27.8774 4.33398H22.7826C22.25 4.33398 21.7256 4.46999 21.256 4.7298C20.7864 4.9896 20.3861 5.36521 20.0907 5.82333L16.1982 11.8593H20.1854C20.4517 11.8593 20.7139 11.7914 20.9487 11.6615C21.1835 11.5316 21.3836 11.3437 21.5314 11.1146L22.1886 10.0956C22.3363 9.86655 22.5364 9.67865 22.7712 9.54875C23.006 9.41884 23.2682 9.35094 23.5345 9.35094H24.6054C24.9248 9.35092 25.237 9.44873 25.5028 9.63183L37.8754 18.1586C38.1042 18.3163 38.2995 18.5206 38.4494 18.759C38.5992 18.9974 38.7004 19.2649 38.7468 19.5451C38.7933 19.8253 38.7839 20.1122 38.7194 20.3886C38.6548 20.6649 38.5364 20.9248 38.3714 21.1522L38.3217 21.2208C38.0215 21.6345 37.5837 21.9185 37.0928 22.018C36.6018 22.1174 36.0927 22.0252 35.6637 21.7591L29.1393 17.7122" stroke="#3C4852" stroke-linecap="round" stroke-linejoin="round"/>
<path d="M38.0361 17.7129L41.2714 13.5322" stroke="#3C4852"/>
<path d="M11.3456 17.7122L8.11035 14.3677" stroke="#3C4852"/>
<path d="M16.1921 1L6.49657 16.8764L0.84082 13.5341" stroke="#3C4852" stroke-linecap="round" stroke-linejoin="round"/>
<path d="M17.8259 17.1389L17.9119 17.1975C18.6486 17.6956 18.8513 18.7094 18.3663 19.4703L15.1598 24.5009C14.6748 25.2618 13.6912 25.4733 12.9545 24.9751L12.8685 24.9165C12.1318 24.4182 11.9291 23.4046 12.4141 22.6437L15.6206 17.6131C16.1056 16.8522 17.0892 16.6405 17.8259 17.1389H17.8259Z" stroke="#3C4852" stroke-linecap="round" stroke-linejoin="round"/>
<path d="M19.6802 20.4064C20.4301 20.9136 20.6387 21.946 20.148 22.7212L17.9336 26.2194C17.4429 26.9945 16.4441 27.2102 15.6942 26.703C14.9444 26.1957 14.7357 25.1632 15.2265 24.388L17.4409 20.89C17.9316 20.1147 18.9304 19.899 19.6802 20.4064Z" stroke="#3C4852" stroke-linecap="round" stroke-linejoin="round"/>
<path d="M21.8371 22.9906C22.5893 23.4941 22.8039 24.5262 22.3181 25.3048L20.8769 27.6152C20.3911 28.3938 19.3945 28.6153 18.6423 28.1116C17.8901 27.6081 17.6756 26.576 18.1613 25.7974L19.6026 23.487C20.0883 22.7084 21.0849 22.4869 21.8371 22.9906V22.9906Z" stroke="#3C4852" stroke-linecap="round" stroke-linejoin="round"/>
<path d="M14.009 17.1156C14.7612 17.6191 14.9757 18.6513 14.49 19.4299L13.0487 21.7403C12.563 22.5189 11.5664 22.7402 10.8142 22.2365C10.062 21.733 9.84744 20.7008 10.3331 19.9222L11.7744 17.6119C12.2601 16.8333 13.2567 16.612 14.009 17.1156Z" stroke="#3C4852" stroke-linecap="round" stroke-linejoin="round"/>
<path d="M33.998 1L43.6936 16.8764L49.3494 13.5341" stroke="#3C4852" stroke-linecap="round" stroke-linejoin="round"/>
<path d="M36.0163 22.3547L35.3219 23.3435C34.961 23.8576 34.4248 24.2109 33.8217 24.3321C33.2186 24.4534 32.5934 24.3336 32.0723 23.997L27.5215 21.0566" stroke="#3C4852" stroke-linecap="round" stroke-linejoin="round"/>
<path d="M33.6126 24.8316L32.8964 25.8516C32.5308 26.3723 31.9921 26.7349 31.3837 26.8702C30.7752 27.0055 30.1399 26.9039 29.5996 26.5846L25.9043 24.4019" stroke="#3C4852" stroke-linecap="round" stroke-linejoin="round"/>
<path d="M29.7989 26.9482L29.0897 28.0687C28.8408 28.462 28.4693 28.7552 28.0368 28.9C27.6043 29.0447 27.1369 29.0324 26.7123 28.8646L21.8604 26.9482" stroke="#3C4852" stroke-linejoin="round"/>
<path d="M5.18404 11.8601C5.18404 11.9544 5.14763 12.0417 5.08777 12.1036L5.44714 12.4512L5.08777 12.1036C5.02841 12.1649 4.95157 12.1962 4.87522 12.1962C4.79888 12.1962 4.72204 12.1649 4.66268 12.1036C4.60281 12.0417 4.56641 11.9544 4.56641 11.8601C4.56641 11.7657 4.60281 11.6784 4.66268 11.6165C4.72204 11.5552 4.79888 11.5239 4.87522 11.5239C4.95157 11.5239 5.02841 11.5552 5.08777 11.6165C5.14763 11.6784 5.18404 11.7657 5.18404 11.8601Z" stroke="#3C4852"/>
<path d="M45.6245 11.8601C45.6245 11.9544 45.5881 12.0417 45.5282 12.1036C45.4688 12.1649 45.392 12.1962 45.3157 12.1962C45.2393 12.1962 45.1625 12.1649 45.1031 12.1036C45.0432 12.0417 45.0068 11.9544 45.0068 11.8601C45.0068 11.7657 45.0432 11.6784 45.1031 11.6165C45.1625 11.5552 45.2393 11.5239 45.3157 11.5239C45.392 11.5239 45.4688 11.5552 45.5282 11.6165C45.5881 11.6784 45.6245 11.7657 45.6245 11.8601Z" stroke="#3C4852"/>
</svg>
