<svg width="37" height="25" viewBox="0 0 37 25" fill="none" xmlns="http://www.w3.org/2000/svg">
<path d="M33.6602 13.3131L33.6414 13.3805C33.5395 13.6583 33.1803 13.7487 32.964 13.5281L29.7557 10.2549L18.3781 21.8584L18.321 21.907C18.1602 22.0206 17.9379 22.0044 17.7947 21.8584L11.6692 15.61L3.20883 24.2384C3.04772 24.4027 2.7865 24.4027 2.62539 24.2384L0.291656 21.8584C0.130545 21.694 0.130547 21.4276 0.291657 21.2633L11.3769 9.95795L11.434 9.90927C11.5948 9.79567 11.8171 9.8119 11.9603 9.95795L18.087 16.2051L26.8385 7.27977L23.629 4.00775C23.396 3.77013 23.5167 3.36357 23.8398 3.29767L35.5085 0.917586C35.7972 0.858706 36.0517 1.11827 35.994 1.41267L33.6602 13.3131ZM35.0632 1.86687L24.7591 3.96907L27.7131 6.98285C27.8742 7.14716 27.8742 7.41356 27.7131 7.57787L18.3781 17.0982L18.321 17.1469C18.1602 17.2605 17.9379 17.2442 17.7947 17.0982L11.6692 10.8499L1.16739 21.5602L2.91769 23.3453L11.3769 14.7181L11.434 14.6694C11.5948 14.5558 11.8171 14.5721 11.9603 14.7181L18.087 20.9652L29.4634 9.36293L29.5205 9.31425C29.6813 9.20065 29.9036 9.21688 30.0468 9.36293L33.0025 12.3761L35.0632 1.86687Z" fill="#3C4852"/>
</svg>
