<svg width="38" height="32" viewBox="0 0 38 32" fill="none" xmlns="http://www.w3.org/2000/svg">
<path d="M27.9742 12.7043C27.13 12.7043 26.2857 12.5353 25.5259 12.155C25.3148 12.0705 25.1037 11.9438 24.9349 11.817L24.6816 11.648L24.7238 11.3522C24.8083 10.9297 24.8505 10.4649 24.8505 10.0423C24.8505 8.18316 24.0484 6.45075 22.6554 5.26764L22.4443 5.05637L22.5288 4.7606C23.373 2.52114 25.5681 1 27.9742 1C31.1824 1 33.7996 3.61974 33.7996 6.83104C33.7996 9.07049 32.491 11.1409 30.4648 12.1128C29.6627 12.5353 28.8185 12.7043 27.9742 12.7043ZM25.6103 11.2677C25.6947 11.3099 25.7792 11.3522 25.8636 11.3945C27.1722 12.0283 28.7763 12.0283 30.0849 11.3945C31.8156 10.5916 32.9553 8.81697 32.9553 6.87329C32.9553 4.12679 30.7181 1.88733 27.9742 1.88733C25.9902 1.88733 24.2173 3.07044 23.4152 4.8451C24.8505 6.19723 25.6947 8.0564 25.6947 10.0423C25.6947 10.5071 25.6947 10.8874 25.6103 11.2677Z" fill="#3C4852" stroke="#3C4852" stroke-width="0.5"/>
<path d="M28.4808 23.9007L28.3963 23.5627C27.6787 20.2247 24.8927 17.4781 21.3468 16.5486L20.207 16.2528L21.2624 15.7457C22.8664 14.9852 24.0906 13.5908 24.5972 11.8584L24.6394 11.6471L24.8504 11.5626C25.0615 11.4781 25.3148 11.3936 25.5681 11.3513L25.6947 11.3091L25.8213 11.3936C27.1299 12.0274 28.734 12.0274 30.0426 11.3936L30.1693 11.3091L30.2959 11.3513C34.0951 12.3232 36.7545 15.5767 36.7545 19.2528C36.7545 23.8585 32.491 23.9007 28.7762 23.9007H28.4808ZM22.5287 15.9993C25.8213 17.1824 28.3541 19.8444 29.1562 23.0134C33.4197 22.9712 35.9524 22.6754 35.9524 19.2106C35.9524 15.9993 33.6307 13.126 30.2959 12.1542C28.8185 12.788 27.1299 12.788 25.6525 12.1542C25.5681 12.1964 25.4414 12.1964 25.357 12.2387C24.8504 13.8443 23.8373 15.1542 22.5287 15.9993Z" fill="#3C4852" stroke="#3C4852" stroke-width="0.5"/>
<path d="M9.82222 12.7046C8.97797 12.7046 8.13371 12.5355 7.37388 12.1553C5.34766 11.1834 4.03906 9.15523 4.03906 6.87352C4.03906 3.66222 6.65626 1.04248 9.86444 1.04248C12.1439 1.04248 14.2546 2.3946 15.1833 4.46504L15.3099 4.76082L15.0144 4.97209C13.4103 6.1552 12.4394 8.01437 12.4394 10.0426C12.4394 10.5496 12.5238 11.0989 12.6505 11.5637L12.7349 11.8595L12.4816 12.0285C12.4394 12.0285 12.3972 12.0707 12.3972 12.0707C11.5107 12.5355 10.6665 12.7046 9.82222 12.7046ZM9.82222 1.92981C7.07839 1.92981 4.84111 4.16927 4.84111 6.91577C4.84111 8.81719 5.98085 10.5919 7.71158 11.4369C8.93575 12.0285 10.4132 12.0707 11.6796 11.5214C11.5952 11.0567 11.5529 10.5919 11.5529 10.1271C11.5529 7.97212 12.5238 5.94393 14.2124 4.59181C13.3681 2.9439 11.6796 1.92981 9.82222 1.92981Z" fill="#3C4852" stroke="#3C4852" stroke-width="0.5"/>
<path d="M8.80938 23.9007H8.47168C5.13686 23.9007 1 23.8585 1 19.2528C1 15.5767 3.65941 12.3654 7.45857 11.3513L7.58521 11.3091L7.71184 11.3936C9.02044 12.0274 10.6245 12.0274 11.9331 11.3936L12.0598 11.3091L12.5241 11.4358L12.5663 11.6471C13.0307 13.4218 14.2971 14.9007 15.9434 15.7035L16.9987 16.2105L15.8589 16.5063C12.313 17.4359 9.527 20.1824 8.80938 23.5205V23.9007ZM7.50078 12.2387C4.16596 13.1683 1.84426 16.0415 1.84426 19.2951C1.84426 22.3796 3.87047 23.0134 8.13397 23.0979C8.93602 19.9289 11.4688 17.2669 14.7614 16.0838C13.4528 15.1964 12.4397 13.9288 11.9331 12.4077C10.4979 12.8725 8.89381 12.8302 7.50078 12.2387Z" fill="#3C4852" stroke="#3C4852" stroke-width="0.5"/>
<path d="M18.6452 17.1829C18.3498 17.1829 18.0121 17.1829 17.7166 17.1406C16.9989 17.0561 16.3235 16.8449 15.6481 16.5491C13.7486 15.6617 12.3555 13.9716 11.8068 11.9434V11.8589C11.6801 11.2673 11.5957 10.718 11.5957 10.1265C11.5957 7.84478 12.6932 5.68983 14.5506 4.37996C15.7748 3.49262 17.21 3.02783 18.6875 3.02783C20.376 3.02783 21.9801 3.61939 23.2464 4.67573C24.8505 6.02786 25.7792 8.01379 25.7792 10.0842C25.7792 10.5913 25.737 11.0561 25.6104 11.5631C25.5682 11.7321 25.5259 11.9434 25.4837 12.1124C24.935 14.0561 23.5419 15.6617 21.6846 16.5068C21.2202 16.7181 20.7137 16.8871 20.2071 17.0139C19.6584 17.1406 19.1518 17.1829 18.6452 17.1829ZM12.5666 11.6054C12.5666 11.6476 12.5666 11.6899 12.6088 11.6899C13.0732 13.4645 14.2973 14.9434 15.9858 15.704C16.5768 15.9575 17.21 16.1688 17.801 16.2533C18.5608 16.3378 19.2362 16.3378 19.9538 16.1688C20.4182 16.0843 20.8403 15.9153 21.2624 15.7463C22.8665 14.9857 24.0907 13.5913 24.5973 11.8589C24.6395 11.6899 24.6817 11.5209 24.7239 11.3941C24.8083 10.9716 24.8505 10.549 24.8505 10.0842C24.8505 8.22506 24.0485 6.49265 22.6555 5.30954C21.5157 4.37996 20.1227 3.83066 18.6452 3.83066C17.3367 3.83066 16.0703 4.25319 15.0149 5.01376C13.4109 6.19687 12.44 8.05604 12.44 10.0842C12.3977 10.5913 12.4822 11.1406 12.5666 11.6054Z" fill="#3C4852" stroke="#3C4852" stroke-width="0.5"/>
<path d="M19.2363 31.0005C19.1519 31.0005 19.0253 31.0005 18.9408 31.0005H18.3499C15.4372 31.0005 12.9466 31.0005 11.047 30.3244C8.89419 29.5639 7.83887 27.916 7.83887 25.3807C7.83887 24.7047 7.92329 24.0286 8.04993 23.3948C8.85198 19.761 11.8491 16.7609 15.7327 15.7468L15.8593 15.7046L15.9859 15.7891C16.5769 16.0426 17.2101 16.2539 17.8011 16.3384C18.5609 16.4229 19.2363 16.4229 19.954 16.2539C20.4183 16.1694 20.8404 16.0004 21.2626 15.8314L21.3892 15.7468L21.558 15.7891C25.4416 16.8032 28.4387 19.8032 29.2408 23.4371C29.3674 24.0709 29.4519 24.7469 29.4519 25.423C29.4519 28.0005 28.3965 29.6061 26.2437 30.3667C24.3863 31.0005 22.0224 31.0005 19.2363 31.0005ZM18.6454 30.1554H18.9408C21.6425 30.1554 24.1752 30.1554 25.9482 29.5216C27.8055 28.8455 28.6076 27.5779 28.6076 25.3807C28.6076 24.7892 28.5232 24.1554 28.3965 23.5638C27.6789 20.268 24.9773 17.5215 21.4736 16.5919C21.0515 16.8032 20.5872 16.93 20.1228 17.0145C19.3208 17.1835 18.5187 17.2257 17.6745 17.099C16.9991 17.0145 16.3659 16.8454 15.7327 16.5497C12.229 17.5215 9.52738 20.2258 8.80976 23.5216C8.68312 24.1131 8.5987 24.7469 8.5987 25.3385C8.5987 27.5357 9.40074 28.8455 11.2581 29.4794C13.031 30.1132 15.5638 30.1132 18.2654 30.1132H18.6454V30.1554Z" fill="#3C4852" stroke="#3C4852" stroke-width="0.5"/>
</svg>
